<?xml version="1.0" standalone="no"?>
<!DOCTYPE svg PUBLIC "-//W3C//DTD SVG 20010904//EN"
 "http://www.w3.org/TR/2001/REC-SVG-20010904/DTD/svg10.dtd">
<svg version="1.0" xmlns="http://www.w3.org/2000/svg"
 width="1920.000000pt" height="1920.000000pt" viewBox="0 0 1920.000000 1920.000000"
 preserveAspectRatio="xMidYMid meet">

<g transform="translate(0.000000,1920.000000) scale(0.100000,-0.100000)"
fill="#000000" stroke="none">
<path d="M5052 16773 c47 -812 47 -863 3 -1163 -41 -288 -92 -534 -130 -628
-19 -47 -32 -89 -28 -95 3 -6 1 -7 -4 -4 -6 4 -17 -7 -24 -25 -7 -17 -35 -65
-63 -107 -27 -42 -49 -79 -48 -84 1 -4 -1 -6 -5 -5 -10 3 -98 -85 -95 -95 1
-4 -1 -6 -5 -5 -5 1 -33 -11 -63 -25 -30 -15 -68 -27 -85 -27 -76 0 -228 60
-396 155 -62 36 -114 65 -116 65 -2 0 -16 8 -31 18 -121 83 -184 124 -186 121
-6 -7 -65 -335 -88 -484 -17 -113 -22 -194 -22 -325 0 -187 -4 -159 75 -485
50 -206 45 -379 -12 -454 -10 -13 -16 -28 -12 -34 3 -5 2 -7 -4 -4 -13 8 -116
-97 -106 -108 5 -4 3 -5 -3 -2 -6 3 -22 -6 -35 -21 -131 -149 -162 -202 -162
-277 0 -91 42 -157 219 -345 55 -58 126 -137 159 -175 33 -39 62 -72 65 -75
15 -14 153 -213 189 -273 167 -275 192 -389 161 -757 -19 -232 6 -445 64 -545
36 -61 88 -103 211 -172 126 -70 182 -109 251 -173 118 -109 184 -205 184
-268 0 -33 -31 -94 -76 -146 -18 -21 -31 -43 -27 -49 3 -6 1 -7 -4 -4 -14 8
-67 -72 -116 -173 -54 -114 -63 -122 -141 -131 -120 -15 -202 -77 -245 -186
-11 -28 -36 -129 -56 -224 -49 -234 -77 -335 -136 -492 -28 -73 -86 -231 -129
-352 -95 -270 -101 -285 -189 -466 -95 -199 -102 -227 -100 -390 1 -74 -1
-178 -6 -231 -6 -85 -5 -106 15 -170 26 -86 56 -148 119 -243 54 -83 165 -200
181 -190 6 3 9 3 8 -2 -2 -4 46 -56 105 -114 66 -66 107 -114 107 -127 0 -11
-16 -43 -35 -72 -19 -29 -35 -56 -35 -61 0 -5 -4 -9 -8 -9 -4 0 -16 -13 -25
-29 -10 -17 -38 -53 -62 -82 -24 -29 -42 -57 -38 -62 3 -6 2 -7 -4 -4 -5 3
-51 -36 -101 -87 -175 -177 -331 -259 -413 -216 -19 11 -19 6 -17 -221 l3
-231 50 -18 c28 -11 307 -112 620 -225 314 -113 617 -224 675 -245 58 -21 213
-78 345 -125 132 -48 418 -151 635 -230 217 -79 454 -164 525 -190 72 -25 171
-62 220 -80 50 -19 198 -73 330 -120 132 -47 300 -108 374 -136 74 -27 141
-47 148 -45 8 3 12 2 9 -3 -3 -4 34 -22 82 -39 148 -52 428 -153 907 -327 253
-92 483 -175 510 -185 66 -23 368 -132 640 -232 121 -44 326 -118 455 -165
129 -46 282 -101 340 -123 58 -21 392 -143 742 -269 l637 -231 2036 0 2035 0
0 7460 0 7460 -5383 0 -5382 0 17 -287z"/>
</g>
</svg>
