<svg width="62" height="52" viewBox="0 0 62 52" fill="none" xmlns="http://www.w3.org/2000/svg">
<path d="M30.6033 7.15723L7.52954 29.7443V51.3931H53.5432V29.7443L30.6033 7.15723Z" fill="#AB52C5"/>
<rect x="13.1766" y="32.5781" width="2.79943" height="16.0967" fill="white"/>
<rect width="2.79943" height="9.09816" transform="matrix(-4.37114e-08 1 1 4.37114e-08 13.1766 32.5781)" fill="white"/>
<rect width="2.79943" height="9.09816" transform="matrix(-4.37114e-08 1 1 4.37114e-08 13.1766 39.2969)" fill="white"/>
<rect width="2.79943" height="9.09816" transform="matrix(-4.37114e-08 1 1 4.37114e-08 13.1766 45.875)" fill="white"/>
<rect width="2.79943" height="16.0967" transform="matrix(-1 0 0 1 47.896 32.5781)" fill="white"/>
<rect x="47.896" y="32.5781" width="2.79943" height="9.09816" transform="rotate(90 47.896 32.5781)" fill="white"/>
<rect x="47.896" y="39.2969" width="2.79943" height="9.09816" transform="rotate(90 47.896 39.2969)" fill="white"/>
<rect x="47.896" y="45.875" width="2.79943" height="9.09816" transform="rotate(90 47.896 45.875)" fill="white"/>
<path d="M28.9379 1.67438L30.624 3.36037L3.41631 29.7414L3.83994e-05 29.7414L28.9379 1.67438Z" fill="#666666"/>
<path d="M30.5505 0L28.8708 1.74163L57.7087 29.7254L61.1579 29.7647L30.5505 0Z" fill="#666666"/>
<path d="M33.1883 31.5077C33.1883 31.5077 39.5979 29.1772 30.0006 17.1582L29.0264 19.7217L28.5271 19.0892C28.5271 19.0892 25.6972 22.7651 29.1596 28.0353C32.6223 33.3056 33.0217 31.5077 33.0217 31.5077" fill="white"/>
<path d="M37.9986 29.6816C37.9986 29.6816 37.9891 28.2048 36.4493 28.3291C34.9133 28.453 33.8093 30.5601 33.8093 30.5601C33.8093 30.5601 34.4919 26.1606 28.9425 22.2513C24.1364 18.8654 22.2783 16.6357 22.2783 16.6357C22.2783 16.6357 20.8346 25.8029 27.7125 31.9796C29.2462 32.4987 29.9436 34.1527 29.9436 34.1527C29.9436 34.1527 29.3389 35.9595 25.0118 35.6952C25.0118 35.6952 25.1521 39.9235 30.0328 38.7837C30.0328 38.7837 29.9426 36.9781 30.7442 36.8792C32.4443 36.6696 36.362 37.2058 37.6992 30.6885C37.6992 30.6885 37.6876 30.7322 38.5829 30.6895L37.9986 29.6816Z" fill="white"/>
<path d="M45.4132 24.0645C45.4273 24.1302 39.5447 29.5889 39.5447 29.5889C39.5447 29.5889 39.3823 29.5759 39.279 29.6601C38.7854 30.0605 38.3525 31.0938 38.3525 31.0938L37.6696 31.0967C38.3702 30.4001 39.03 29.123 39.03 29.123C39.0943 29.6327 45.2631 24.0849 45.2631 24.0849L45.4132 24.0645Z" fill="#C5A900"/>
<path d="M39.6567 29.601C39.6567 29.601 39.6667 29.9553 40.9046 29.7968C43.3976 29.4748 44.631 27.3731 44.631 27.3731C44.2067 27.2906 41.9856 27.25 41.0699 28.3515C40.1541 29.4531 39.6388 29.4507 39.6388 29.4507C39.6388 29.4507 39.482 29.5722 39.6546 29.6038L39.6567 29.601Z" fill="#8DC63F"/>
<path d="M42.5293 26.8373C42.5293 26.8373 42.5393 27.1917 43.7772 27.0331C46.2702 26.7111 47.5035 24.6095 47.5035 24.6095C47.0792 24.527 44.8581 24.4863 43.9424 25.5879C43.0267 26.6895 42.5114 26.687 42.5114 26.687C42.5114 26.687 42.3545 26.8085 42.5271 26.8401L42.5293 26.8373Z" fill="#8DC63F"/>
<path d="M38.9922 29.162C38.9922 29.162 38.7919 29.0015 39.0674 27.8042C39.621 25.3919 41.7067 24.4941 41.7067 24.4941C41.7514 24.9164 41.5867 27.0954 40.3898 27.8921C39.1901 28.6867 39.1466 29.1911 39.1466 29.1911C39.1466 29.1911 39.0106 29.3349 38.9947 29.1617L38.9922 29.162Z" fill="#8DC63F"/>
<path d="M41.9547 26.9687C41.9547 26.9687 41.7544 26.8081 42.0299 25.6109C42.5835 23.1985 44.6692 22.3008 44.6692 22.3008C44.7139 22.723 44.5492 24.9021 43.3523 25.6988C42.1526 26.4934 42.1091 26.9978 42.1091 26.9978C42.1091 26.9978 41.9732 27.1415 41.9572 26.9683L41.9547 26.9687Z" fill="#8DC63F"/>
<path d="M45.2069 24.2554C45.2069 24.2554 45.2136 24.5073 46.1067 24.3928C47.9054 24.1603 48.798 22.6645 48.798 22.6645C48.4921 22.6065 46.8901 22.5808 46.228 23.3652C45.5659 24.1496 45.1942 24.1486 45.1942 24.1486C45.1942 24.1486 45.0809 24.2352 45.2053 24.2574L45.2069 24.2554Z" fill="#8DC63F"/>
<path d="M44.8247 24.3961C44.8247 24.3961 44.6659 24.2652 44.88 23.2945C45.3103 21.3385 46.9557 20.6162 46.9557 20.6162C46.9923 20.959 46.8686 22.7268 45.9252 23.3697C44.9796 24.011 44.9468 24.4201 44.9468 24.4201C44.9468 24.4201 44.8398 24.5364 44.8267 24.3958L44.8247 24.3961Z" fill="#8DC63F"/>
<path d="M38.2749 28.7013C38.2749 28.7013 38.4552 27.113 36.9154 27.2373C35.3794 27.3611 34.4579 28.5968 34.4579 28.5968C34.4579 28.5968 34.9102 25.4292 29.3608 21.5198C24.5546 18.134 22.6966 15.9043 22.6966 15.9043C22.6966 15.9043 21.2528 25.0715 28.1307 31.2481C29.6644 31.7672 30.3619 33.4213 30.3619 33.4213C30.3619 33.4213 29.7572 35.2281 25.4301 34.9637C25.4301 34.9637 25.5704 39.1921 30.451 38.0523C30.451 38.0523 30.3609 36.2467 31.1624 36.1478C32.8625 35.9381 36.7802 36.4744 38.1175 29.9571C38.1175 29.9571 37.3796 28.744 38.2749 28.7013Z" fill="#AB52C5"/>
<path d="M37.9986 29.6816C37.9986 29.6816 37.9891 28.2048 36.4493 28.3291C34.9133 28.453 33.8093 30.5601 33.8093 30.5601C33.8093 30.5601 34.4919 26.1606 28.9425 22.2513C24.1364 18.8654 22.2783 16.6357 22.2783 16.6357C22.2783 16.6357 20.8346 25.8029 27.7125 31.9796C29.2462 32.4987 29.9436 34.1527 29.9436 34.1527C29.9436 34.1527 29.3389 35.9595 25.0118 35.6952C25.0118 35.6952 25.1521 39.9235 30.0328 38.7837C30.0328 38.7837 29.9426 36.9781 30.7442 36.8792C32.4443 36.6696 36.362 37.2058 37.6992 30.6885C37.6992 30.6885 37.6876 30.7322 38.5829 30.6895L37.9986 29.6816Z" fill="white"/>
<path fill-rule="evenodd" clip-rule="evenodd" d="M36.8379 29.8331C36.8608 29.9224 36.9514 29.9773 37.042 29.9558C37.1325 29.9332 37.1882 29.8428 37.1653 29.7536C37.1423 29.6643 37.0518 29.6095 36.9601 29.632C36.8696 29.6535 36.815 29.7439 36.8368 29.8342L36.8379 29.8331Z" fill="#AB52C5"/>
<path fill-rule="evenodd" clip-rule="evenodd" d="M36.8193 29.7586C36.8313 29.8059 36.8793 29.835 36.9273 29.8232C36.9753 29.8113 37.0048 29.7629 36.9928 29.7156C36.9808 29.6683 36.9328 29.6392 36.8837 29.6511C36.8357 29.6629 36.8062 29.7102 36.8182 29.7586L36.8193 29.7586Z" fill="#AB52C5"/>
<path d="M21.7448 18.3208L23.9243 20.0249L23.738 20.7488C23.738 20.7488 25.5825 23.9649 23.1304 22.6901C20.6786 21.4153 21.7448 18.3208 21.7448 18.3208Z" fill="white"/>
<path d="M21.4517 21.5118L23.9503 22.7001L23.9262 23.447C23.9262 23.447 26.4272 26.1842 23.7566 25.4742C21.0856 24.7643 21.4517 21.5118 21.4517 21.5118Z" fill="white"/>
<path d="M21.7379 24.541L24.4103 25.2574L24.5216 25.9964C24.5216 25.9964 27.4766 28.2357 24.7214 28.0209C21.9663 27.8061 21.7379 24.541 21.7379 24.541Z" fill="white"/>
<path d="M22.4756 27.3516L25.2321 27.5911L25.4708 28.2994C25.4708 28.2994 28.7709 29.9891 26.0204 30.2579C23.2698 30.5269 22.4756 27.3516 22.4756 27.3516Z" fill="white"/>
<path d="M23.5936 29.8448L26.3479 29.5826L26.7104 30.2361C26.7104 30.2361 34.4123 33.1509 31.6791 33.559C25.9297 34.4176 23.5936 29.8448 23.5936 29.8448Z" fill="white"/>
<path d="M44.1313 7.36719H40.6803V12.4914L44.1313 15.9948V7.36719Z" fill="#666666"/>
<rect width="1.32767" height="4.4968" transform="matrix(-4.55539e-08 1 1 4.19434e-08 25.5167 40.7266)" fill="white"/>
<rect width="1.32767" height="4.4968" transform="matrix(-4.55539e-08 1 1 4.19434e-08 25.5167 43.9131)" fill="white"/>
<rect width="1.32767" height="4.4968" transform="matrix(-4.55539e-08 1 1 4.19434e-08 25.5167 47.0332)" fill="white"/>
<rect x="25.3075" y="40.7266" width="1.56865" height="7.63409" fill="white"/>
<rect x="25.2029" y="40.4131" width="0.31373" height="8.26155" fill="white"/>
<rect x="30.0134" y="40.4131" width="0.31373" height="4.81052" transform="rotate(90 30.0134 40.4131)" fill="white"/>
<rect x="30.0134" y="48.3613" width="0.31373" height="4.81052" transform="rotate(90 30.0134 48.3613)" fill="white"/>
<rect x="30.0134" y="46.8965" width="0.31373" height="3.1373" transform="rotate(90 30.0134 46.8965)" fill="white"/>
<rect x="30.0134" y="45.1191" width="0.31373" height="3.1373" transform="rotate(90 30.0134 45.1191)" fill="white"/>
<rect x="30.0134" y="43.6543" width="0.31373" height="3.1373" transform="rotate(90 30.0134 43.6543)" fill="white"/>
<rect x="29.9088" y="41.877" width="0.31373" height="3.03272" transform="rotate(90 29.9088 41.877)" fill="white"/>
<rect x="29.6997" y="40.4131" width="0.31373" height="1.7778" fill="white"/>
<rect x="26.8761" y="41.877" width="0.31373" height="2.09153" fill="white"/>
<rect x="26.8761" y="45.1191" width="0.31373" height="2.09153" fill="white"/>
<rect x="29.6997" y="43.6543" width="0.31373" height="1.7778" fill="white"/>
<rect x="29.6997" y="46.8965" width="0.31373" height="1.7778" fill="white"/>
<rect x="35.556" y="40.7266" width="1.32767" height="4.4968" transform="rotate(90 35.556 40.7266)" fill="white"/>
<rect x="35.556" y="43.9131" width="1.32767" height="4.4968" transform="rotate(90 35.556 43.9131)" fill="white"/>
<rect x="35.556" y="47.0332" width="1.32767" height="4.4968" transform="rotate(90 35.556 47.0332)" fill="white"/>
<rect width="1.56865" height="7.63409" transform="matrix(-1 0 0 1 35.7651 40.7266)" fill="white"/>
<rect width="0.31373" height="8.26155" transform="matrix(-1 0 0 1 35.8698 40.4131)" fill="white"/>
<rect width="0.31373" height="4.81052" transform="matrix(4.37114e-08 1 1 -4.37114e-08 31.0592 40.4131)" fill="white"/>
<rect width="0.31373" height="4.81052" transform="matrix(4.37114e-08 1 1 -4.37114e-08 31.0592 48.3613)" fill="white"/>
<rect width="0.31373" height="3.1373" transform="matrix(4.37114e-08 1 1 -4.37114e-08 31.0592 46.8965)" fill="white"/>
<rect width="0.31373" height="3.1373" transform="matrix(4.37114e-08 1 1 -4.37114e-08 31.0592 45.1191)" fill="white"/>
<rect width="0.31373" height="3.1373" transform="matrix(4.37114e-08 1 1 -4.37114e-08 31.0592 43.6543)" fill="white"/>
<rect width="0.31373" height="3.03272" transform="matrix(4.37114e-08 1 1 -4.37114e-08 31.1638 41.877)" fill="white"/>
<rect width="0.31373" height="1.7778" transform="matrix(-1 0 0 1 31.3729 40.4131)" fill="white"/>
<rect width="0.31373" height="2.09153" transform="matrix(-1 0 0 1 34.1965 41.877)" fill="white"/>
<rect width="0.31373" height="2.09153" transform="matrix(-1 0 0 1 34.1965 45.1191)" fill="white"/>
<rect width="0.31373" height="1.7778" transform="matrix(-1 0 0 1 31.3729 43.6543)" fill="white"/>
<rect width="0.31373" height="1.7778" transform="matrix(-1 0 0 1 31.3729 46.8965)" fill="white"/>
</svg>
