<svg width="17" height="16" viewBox="0 0 17 16" fill="none" xmlns="http://www.w3.org/2000/svg">
<path d="M7.24909 16C6.96716 16 6.73085 15.9042 6.54013 15.7125C6.34942 15.5208 6.25406 15.2833 6.25406 15V9L0.482919 1.6C0.234162 1.26667 0.196849 0.916667 0.370978 0.55C0.545108 0.183333 0.847761 0 1.27894 0H15.2093C15.6405 0 15.9431 0.183333 16.1172 0.55C16.2914 0.916667 16.2541 1.26667 16.0053 1.6L10.2342 9V15C10.2342 15.2833 10.1388 15.5208 9.94809 15.7125C9.75738 15.9042 9.52106 16 9.23914 16H7.24909ZM8.24411 8.3L13.1695 2H3.31874L8.24411 8.3Z" fill="#5F6368"/>
</svg>
