<svg width="23" height="22" viewBox="0 0 23 22" fill="none" xmlns="http://www.w3.org/2000/svg">
<path d="M10.2405 21.9498V19.9498C8.15459 19.7165 6.36485 18.854 4.87132 17.3623C3.37778 15.8706 2.5142 14.0831 2.28058 11.9998H0.278076V9.9998H2.28058C2.5142 7.91647 3.37778 6.12897 4.87132 4.6373C6.36485 3.14564 8.15459 2.28314 10.2405 2.0498V0.0498047H12.243V2.0498C14.329 2.28314 16.1187 3.14564 17.6122 4.6373C19.1058 6.12897 19.9694 7.91647 20.203 9.9998H22.2055V11.9998H20.203C19.9694 14.0831 19.1058 15.8706 17.6122 17.3623C16.1187 18.854 14.329 19.7165 12.243 19.9498V21.9498H10.2405ZM11.2418 17.9998C13.1775 17.9998 14.8296 17.3165 16.198 15.9498C17.5664 14.5831 18.2505 12.9331 18.2505 10.9998C18.2505 9.06647 17.5664 7.41647 16.198 6.0498C14.8296 4.68314 13.1775 3.9998 11.2418 3.9998C9.30603 3.9998 7.65396 4.68314 6.28559 6.0498C4.91721 7.41647 4.23302 9.06647 4.23302 10.9998C4.23302 12.9331 4.91721 14.5831 6.28559 15.9498C7.65396 17.3165 9.30603 17.9998 11.2418 17.9998ZM11.2418 14.9998C10.1404 14.9998 9.19756 14.6081 8.41325 13.8248C7.62893 13.0415 7.23677 12.0998 7.23677 10.9998C7.23677 9.89981 7.62893 8.95814 8.41325 8.1748C9.19756 7.39147 10.1404 6.9998 11.2418 6.9998C12.3432 6.9998 13.286 7.39147 14.0703 8.1748C14.8546 8.95814 15.2468 9.89981 15.2468 10.9998C15.2468 12.0998 14.8546 13.0415 14.0703 13.8248C13.286 14.6081 12.3432 14.9998 11.2418 14.9998ZM11.2418 12.9998C11.7925 12.9998 12.2639 12.804 12.656 12.4123C13.0482 12.0206 13.2443 11.5498 13.2443 10.9998C13.2443 10.4498 13.0482 9.97897 12.656 9.58731C12.2639 9.19564 11.7925 8.9998 11.2418 8.9998C10.6911 8.9998 10.2197 9.19564 9.82751 9.58731C9.43536 9.97897 9.23928 10.4498 9.23928 10.9998C9.23928 11.5498 9.43536 12.0206 9.82751 12.4123C10.2197 12.804 10.6911 12.9998 11.2418 12.9998Z" fill="#5F6368"/>
</svg>
