<svg width="23" height="22" viewBox="0 0 23 22" fill="none" xmlns="http://www.w3.org/2000/svg">
<path d="M10.2407 21.9498V19.9498C8.15471 19.7165 6.36497 18.854 4.87144 17.3623C3.37791 15.8706 2.51433 14.0831 2.2807 11.9998H0.278198V9.9998H2.2807C2.51433 7.91647 3.37791 6.12897 4.87144 4.6373C6.36497 3.14564 8.15471 2.28314 10.2407 2.0498V0.0498047H12.2432V2.0498C14.3291 2.28314 16.1188 3.14564 17.6124 4.6373C19.1059 6.12897 19.9695 7.91647 20.2031 9.9998H22.2056V11.9998H20.2031C19.9695 14.0831 19.1059 15.8706 17.6124 17.3623C16.1188 18.854 14.3291 19.7165 12.2432 19.9498V21.9498H10.2407ZM11.2419 17.9998C13.1777 17.9998 14.8297 17.3165 16.1981 15.9498C17.5665 14.5831 18.2507 12.9331 18.2507 10.9998C18.2507 9.06647 17.5665 7.41647 16.1981 6.0498C14.8297 4.68314 13.1777 3.9998 11.2419 3.9998C9.30615 3.9998 7.65409 4.68314 6.28571 6.0498C4.91733 7.41647 4.23314 9.06647 4.23314 10.9998C4.23314 12.9331 4.91733 14.5831 6.28571 15.9498C7.65409 17.3165 9.30615 17.9998 11.2419 17.9998ZM11.2419 14.9998C10.1405 14.9998 9.19768 14.6081 8.41337 13.8248C7.62905 13.0415 7.2369 12.0998 7.2369 10.9998C7.2369 9.89981 7.62905 8.95814 8.41337 8.1748C9.19768 7.39147 10.1405 6.9998 11.2419 6.9998C12.3433 6.9998 13.2861 7.39147 14.0704 8.1748C14.8548 8.95814 15.2469 9.89981 15.2469 10.9998C15.2469 12.0998 14.8548 13.0415 14.0704 13.8248C13.2861 14.6081 12.3433 14.9998 11.2419 14.9998ZM11.2419 12.9998C11.7926 12.9998 12.264 12.804 12.6562 12.4123C13.0483 12.0206 13.2444 11.5498 13.2444 10.9998C13.2444 10.4498 13.0483 9.97897 12.6562 9.58731C12.264 9.19564 11.7926 8.9998 11.2419 8.9998C10.6912 8.9998 10.2198 9.19564 9.82764 9.58731C9.43548 9.97897 9.2394 10.4498 9.2394 10.9998C9.2394 11.5498 9.43548 12.0206 9.82764 12.4123C10.2198 12.804 10.6912 12.9998 11.2419 12.9998Z" fill="#5F6368"/>
</svg>
