<svg width="24" height="24" viewBox="0 0 24 24" fill="none" xmlns="http://www.w3.org/2000/svg">
<path d="M9.94502 4.65958L4.54577 13.7322C3.9328 14.7601 4.69954 16.047 5.92334 16.047H16.7218C17.9456 16.047 18.7102 14.7622 18.0994 13.7322L12.7002 4.65958C12.0872 3.6317 10.558 3.6317 9.94715 4.65958H9.94502Z" stroke="#202020" stroke-linecap="round" stroke-linejoin="round"/>
<path d="M11.3223 7.35938V10.9652" stroke="#202020" stroke-linecap="round" stroke-linejoin="round"/>
<path d="M11.322 14.2429C11.8375 14.2429 12.2553 13.8374 12.2553 13.3372C12.2553 12.8371 11.8375 12.4316 11.322 12.4316C10.8065 12.4316 10.3887 12.8371 10.3887 13.3372C10.3887 13.8374 10.8065 14.2429 11.322 14.2429Z" fill="black"/>
<path d="M11.1813 21.0838C16.8042 21.0838 21.3625 16.6609 21.3625 11.205C21.3625 5.74906 16.8042 1.32617 11.1813 1.32617C5.5583 1.32617 1 5.74906 1 11.205C1 16.6609 5.5583 21.0838 11.1813 21.0838Z" stroke="#202020" stroke-linecap="round" stroke-linejoin="round"/>
<path d="M23.0005 22.6739C21.4606 21.1797 19.9208 19.6856 18.3809 18.1914" stroke="#202020" stroke-linecap="round" stroke-linejoin="round"/>
</svg>
