<svg width="679" height="503" viewBox="0 0 679 503" fill="none" xmlns="http://www.w3.org/2000/svg">
<path opacity="0.1" d="M207.277 445.402C261.137 445.402 304.8 401.739 304.8 347.879C304.8 294.018 261.137 250.356 207.277 250.356C153.416 250.356 109.754 294.018 109.754 347.879C109.754 401.739 153.416 445.402 207.277 445.402Z" fill="url(#paint0_linear_1313_14493)"/>
<path opacity="0.1" d="M475.515 223.632C496.933 223.632 514.294 206.27 514.294 184.853C514.294 163.436 496.933 146.074 475.515 146.074C454.098 146.074 436.736 163.436 436.736 184.853C436.736 206.27 454.098 223.632 475.515 223.632Z" fill="url(#paint1_linear_1313_14493)"/>
<path opacity="0.1" d="M646.225 315.466C651.536 315.466 655.842 311.161 655.842 305.849C655.842 300.538 651.536 296.232 646.225 296.232C640.913 296.232 636.607 300.538 636.607 305.849C636.607 311.161 640.913 315.466 646.225 315.466Z" fill="url(#paint2_linear_1313_14493)"/>
<path opacity="0.1" d="M195.829 121.365C200.501 115.077 199.19 106.192 192.902 101.52C186.614 96.8488 177.729 98.1592 173.058 104.447C168.386 110.736 169.696 119.62 175.984 124.292C182.273 128.964 191.157 127.653 195.829 121.365Z" fill="url(#paint3_linear_1313_14493)"/>
<path opacity="0.1" d="M285.733 146.08C305.924 146.08 322.292 129.712 322.292 109.521C322.292 89.3301 305.924 72.9622 285.733 72.9622C265.542 72.9622 249.174 89.3301 249.174 109.521C249.174 129.712 265.542 146.08 285.733 146.08Z" fill="url(#paint4_linear_1313_14493)"/>
<path opacity="0.1" d="M606.854 472.049C606.854 482.477 605.249 492.537 602.269 501.981H412.481C409.501 492.537 407.896 482.477 407.896 472.049C407.896 417.113 452.439 372.576 507.375 372.576C562.311 372.576 606.854 417.113 606.854 472.049Z" fill="url(#paint5_linear_1313_14493)"/>
<path d="M475.516 496.589H401.11L364.407 351.745H438.813L475.516 496.589Z" stroke="black" stroke-width="2.23" stroke-miterlimit="10" stroke-linecap="round"/>
<path d="M465.875 496.589H391.464L354.767 351.745H429.173L465.875 496.589Z" fill="#3F3F3F"/>
<path d="M533.023 425.94H244.854C237.359 425.94 231.907 418.842 233.834 411.6L290.167 200.012C292.405 191.614 300.003 185.776 308.694 185.776H596.863C604.357 185.776 609.81 192.874 607.883 200.116L551.549 411.704C549.312 420.102 541.714 425.94 533.023 425.94Z" fill="#3F3F3F"/>
<path d="M520.812 425.94H232.643C225.148 425.94 219.696 418.842 221.623 411.6L277.956 200.012C280.194 191.614 287.792 185.776 296.483 185.776H584.652C592.146 185.776 597.599 192.874 595.672 200.116L539.338 411.704C537.101 420.102 529.503 425.94 520.812 425.94Z" fill="url(#paint6_linear_1313_14493)"/>
<path d="M513.484 418.094H244.13C237.13 418.094 232.028 411.456 233.828 404.692L286.486 206.914C288.574 199.069 295.684 193.604 303.8 193.604H573.154C580.154 193.604 585.256 200.242 583.455 207.006L530.797 404.784C528.709 412.63 521.6 418.094 513.484 418.094Z" stroke="white" stroke-width="2" stroke-miterlimit="10"/>
<path d="M480.917 491.195H328.078V501.992H480.917V491.195Z" fill="url(#paint7_linear_1313_14493)"/>
<path d="M480.916 501.986H528.847V491.189H480.916V501.986Z" fill="#3F3F3F"/>
<path d="M395.887 173.103C395.887 173.103 406.545 141.284 436.627 150.418C471.288 160.944 451.95 216.432 462.511 240.849C473.313 265.829 485.691 269.206 485.691 269.206C485.691 269.206 478.041 283.718 452.83 278.886C436.978 275.849 418.325 255.608 417.721 206.637" fill="black"/>
<path d="M203.688 295.163C203.688 295.163 186.691 277.913 183.378 271.35C180.065 264.788 178.667 257.109 173.307 252.87C167.946 248.631 158.812 245.352 144.478 235.672C130.145 225.991 126.435 219.94 123.363 220.412C120.292 220.884 117.519 226.377 124.45 235.591C133.314 247.377 144.714 254.883 144.714 254.883L142.92 257.759C142.92 257.759 135.695 255.441 133.837 259.41C131.289 264.862 137.484 265.817 141.447 279.955C145.41 294.088 151.329 298.148 159.865 301.789C168.4 305.43 184.713 319.166 184.713 319.166L203.694 295.175L203.688 295.163Z" fill="url(#paint8_linear_1313_14493)"/>
<path d="M457.581 262.194C452.698 254.71 409.737 267.807 409.737 267.807L393.137 273.381L329.021 286.927C329.021 286.927 301.194 292.782 293.71 303.199C286.227 313.615 259.05 354.948 259.05 354.948L196.958 286.409C196.958 286.409 171.828 300.921 155.229 336.071C155.229 336.071 244.129 429.377 271.198 424.166C282.368 422.015 302.35 396.828 313.037 382.344C317.034 390.15 326.295 403.839 326.295 403.839L329.021 418.092H432.192C432.192 418.092 462.459 269.677 457.581 262.188V262.194Z" fill="url(#paint9_linear_1313_14493)"/>
<path d="M446.307 345.169C443.512 360.383 440.647 375.343 438.232 387.71L434.522 388.947L431.657 311.705L446.307 345.169Z" fill="black"/>
<path d="M388.783 248.222C403.428 236.932 419.901 213.895 411.745 193.068C400.954 165.528 357.528 156.181 340.088 181.38C331.512 193.769 321.038 214.033 324.972 239.733C327.371 255.43 340.836 260.658 355.382 259.997C353.841 267.267 352.167 274.831 350.671 280.905C343.102 283.061 329.027 286.927 329.027 286.927C329.027 286.927 334.238 302.773 362.883 301.467C391.521 300.168 409.743 267.802 409.743 267.802C409.743 267.802 399.654 270.327 392.165 272.277C391.751 269.447 390.198 258.374 388.783 248.217V248.222Z" fill="url(#paint10_linear_1313_14493)"/>
<path d="M454.723 260.435C454.723 260.435 472.226 264.024 483.943 297.442C495.659 330.866 507.376 418.093 507.376 418.093H382.721C379.005 414.757 375.1 397.651 375.934 393.309L447.712 379.527C447.712 379.527 435.126 330.539 430.893 307.755C426.66 284.972 438.204 256.069 454.729 260.429L454.723 260.435Z" fill="url(#paint11_linear_1313_14493)"/>
<path d="M311.708 418.093H510.746" stroke="white" stroke-width="2" stroke-miterlimit="10"/>
<path d="M375.841 394.085C375.841 394.085 358.735 395.327 355.071 396.374C351.407 397.421 324.385 413.854 318.858 420.906C315.102 425.697 309.516 454.945 309.764 457.286C309.965 459.185 312.904 459.944 315.878 458.391C315.257 461.019 314.894 462.837 314.94 463.291C315.228 466.041 321.946 467.013 324.977 460.927C324.644 462.498 324.293 464.706 324.776 465.328C325.921 467.456 331.88 467.444 334.945 461.836C334.865 463.079 335.273 463.625 335.273 463.625C336.027 466.162 342.676 465.943 345.414 458.667C347.588 452.892 352.857 434.906 352.857 434.906C352.857 434.906 365.839 429.913 367.932 417.518H382.186C382.186 417.518 376.905 410.104 375.841 394.085Z" fill="url(#paint12_linear_1313_14493)"/>
<path d="M335.343 459.874C335.343 459.874 337.517 447.018 337.741 445.442C337.966 443.866 340.968 433.064 340.968 433.064" stroke="black" stroke-linecap="round" stroke-linejoin="round"/>
<path d="M325.38 459.142C325.38 459.142 327.404 447.857 327.635 446.281C327.865 444.705 331.626 431.654 331.626 431.654" stroke="black" stroke-linecap="round" stroke-linejoin="round"/>
<path d="M316.361 456.796C316.361 456.796 318.386 445.511 318.616 443.935C318.846 442.359 322.608 429.308 322.608 429.308" stroke="black" stroke-linecap="round" stroke-linejoin="round"/>
<path d="M153.957 267.491C153.031 260.882 146.957 256.16 146.957 256.16" stroke="black" stroke-linecap="round" stroke-linejoin="round"/>
<path d="M144.479 258.858C144.479 258.858 156.782 267.635 161.585 278.891" stroke="black" stroke-linecap="round" stroke-linejoin="round"/>
<path d="M395.887 164.774C395.887 164.774 398.752 156.525 410.439 160.649C423.421 165.228 428.673 181.057 419.619 187.672C413.522 192.129 395.208 171.751 395.881 164.774H395.887Z" fill="url(#paint13_linear_1313_14493)"/>
<path d="M420.856 216.569C414.995 239.531 388.783 248.222 388.783 248.222C388.208 244.092 388.047 242.827 387.656 240.031C398.211 235.522 400.425 217.375 392.125 214.522C381.996 211.042 378.257 222.091 378.257 222.091C357.965 219.577 347.347 201.384 350.879 186.786C342.095 179.556 336.096 187.586 336.096 187.586C336.096 187.586 335.147 159.614 353.461 154.196C371.804 148.772 377.205 160.575 377.205 160.575C415.018 156.071 426.723 193.602 420.856 216.569Z" fill="black"/>
<path d="M313.037 382.338C310.368 385.956 307.118 390.236 303.575 394.665C303.823 371.462 319.485 334.535 319.485 334.535C316.764 347.804 310.88 378.111 313.037 382.338Z" fill="black"/>
<path d="M449.902 379.946C449.902 379.946 466.56 377.202 479.611 394.665" stroke="black" stroke-miterlimit="10" stroke-linecap="round"/>
<path d="M259.717 356.086C259.717 356.086 268.609 370.489 265.566 387.221" stroke="black" stroke-miterlimit="10" stroke-linecap="round"/>
<path style="mix-blend-mode:multiply" d="M355.376 259.996L352.667 272.386C377.147 264.65 380.351 246.479 380.351 246.479C373.259 257.903 355.376 259.996 355.376 259.996Z" fill="url(#paint14_linear_1313_14493)"/>
<path d="M340.352 213.151C342.295 205.353 338.85 197.78 332.657 196.237C326.464 194.694 319.869 199.765 317.926 207.564C315.983 215.363 319.428 222.935 325.621 224.478C331.814 226.021 338.409 220.95 340.352 213.151Z" stroke="white" stroke-width="3" stroke-miterlimit="10"/>
<path d="M368.491 221.109C370.434 213.31 366.989 205.737 360.797 204.195C354.604 202.652 348.009 207.723 346.066 215.522C344.123 223.32 347.568 230.893 353.761 232.436C359.953 233.979 366.548 228.907 368.491 221.109Z" stroke="white" stroke-width="3" stroke-miterlimit="10"/>
<path d="M368.945 218.302L379.586 219.383" stroke="white" stroke-width="3" stroke-linecap="round" stroke-linejoin="round"/>
<path d="M340.697 211.272C340.697 211.272 344.367 210.697 346.829 213.096" stroke="white" stroke-width="3" stroke-miterlimit="10"/>
<path d="M94.9606 443.056C94.9606 443.056 54.1626 419.646 67.9326 408.757C79.1257 399.905 99.4586 431.661 99.4586 431.661C99.4586 431.661 72.2235 381.528 94.9549 378.152C117.025 374.873 112.285 426.928 112.51 426.174C112.734 425.421 116.708 385.203 130.967 390.984C141.81 395.379 124.514 427.819 124.514 427.819C124.514 427.819 138.353 404.133 146.756 411.748C156.063 420.181 131.64 443.067 131.64 443.067H94.9549L94.9606 443.056Z" fill="url(#paint15_linear_1313_14493)"/>
<path d="M135.477 443.056H89.5596V502.001H135.477V443.056Z" stroke="#666666" stroke-width="2" stroke-miterlimit="10" stroke-linecap="round"/>
<path d="M89.4043 448.52C89.4043 448.52 99.9244 449.532 102.864 460.075C107.459 476.583 89.5653 481.685 89.5653 481.685L89.4043 448.525V448.52Z" fill="#AB52C5"/>
<path d="M118.129 474.853C118.129 474.853 110.79 476.423 112.101 485.994C113.413 495.56 128.206 499.528 132.848 489.928C136.777 481.801 129.138 471.58 118.129 474.853Z" fill="#AB52C5"/>
<path d="M109.364 466.546C109.364 466.546 106.637 467.132 107.126 470.687C107.615 474.242 113.108 475.714 114.834 472.148C116.295 469.128 113.453 465.332 109.364 466.546Z" fill="#AB52C5"/>
<path d="M112.867 501.984H91.8838C93.7186 497.837 97.6817 496.992 97.6817 496.992C104.457 494.973 110.065 497.665 112.867 501.984Z" fill="#AB52C5"/>
<path d="M119.044 443.056C119.044 443.056 118.917 451.183 124.52 453.099C132.601 455.854 135.471 450.959 135.471 450.959V443.056H119.038H119.044Z" fill="#AB52C5"/>
<path d="M78.6084 420.157C78.6084 420.157 90.9117 429.636 101.564 443.05" stroke="#666666" stroke-width="2" stroke-miterlimit="10" stroke-linecap="round"/>
<path d="M98.2627 391.801C98.2627 391.801 105.752 418.087 107.454 443.056" stroke="#666666" stroke-width="2" stroke-miterlimit="10" stroke-linecap="round"/>
<path d="M126.475 400.803C126.475 400.803 119.687 418.081 116.236 443.056" stroke="#666666" stroke-width="2" stroke-miterlimit="10" stroke-linecap="round"/>
<path d="M142.005 417.425C142.005 417.425 130.749 427.807 124.525 443.049" stroke="#666666" stroke-width="2" stroke-miterlimit="10" stroke-linecap="round"/>
<path d="M225.35 135.537C225.35 135.537 228.513 129.009 231.677 127.623" stroke="white" stroke-width="1.98" stroke-linecap="round" stroke-linejoin="round"/>
<path d="M174.849 389.245L196.752 405.603L201.704 448.518" stroke="black" stroke-width="6" stroke-linecap="round" stroke-linejoin="round"/>
<path d="M217.211 501.98H181.17L177.247 431.652H221.134L217.211 501.98Z" fill="url(#paint16_linear_1313_14493)"/>
<path d="M219.052 489.66H179.329L177.247 454.441H221.14L219.052 489.66Z" fill="black"/>
<path d="M222.451 427.806H175.936V437.262H222.451V427.806Z" fill="black"/>
<path d="M207.278 426.165H191.109V429.449H207.278V426.165Z" fill="black"/>
<path opacity="0.1" d="M303.166 478.538H238.188V500.608H303.166V478.538Z" fill="url(#paint17_linear_1313_14493)"/>
<path d="M314.653 502H233.442V498.865H288.649C293.722 498.865 297.852 494.735 297.852 489.662C297.852 484.589 293.722 480.459 288.649 480.459H233.442V477.324H314.653C321.457 477.324 326.991 482.857 326.991 489.662C326.991 496.466 321.457 502 314.653 502Z" fill="url(#paint18_linear_1313_14493)"/>
<path opacity="0.1" d="M292.175 453.863H227.196V475.933H292.175V453.863Z" fill="url(#paint19_linear_1313_14493)"/>
<path d="M292.704 477.324H222.451V474.189H277.658C282.731 474.189 286.861 470.059 286.861 464.986C286.861 459.913 282.731 455.783 277.658 455.783H222.451V452.648H292.704C299.509 452.648 305.042 458.182 305.042 464.986C305.042 471.791 299.509 477.324 292.704 477.324Z" fill="url(#paint20_linear_1313_14493)"/>
<path d="M145.088 137.771H60.0931C57.1292 137.771 54.7266 140.173 54.7266 143.137V200C54.7266 202.964 57.1292 205.367 60.0931 205.367H145.088C148.052 205.367 150.455 202.964 150.455 200V143.137C150.455 140.173 148.052 137.771 145.088 137.771Z" fill="url(#paint21_linear_1313_14493)"/>
<path d="M150.455 143.131V200C150.455 202.962 148.056 205.366 145.094 205.366H60.0873C57.1251 205.366 54.7266 202.962 54.7266 200V143.131C54.7266 140.169 57.1251 137.765 60.0873 137.765H145.094C148.056 137.765 150.455 140.169 150.455 143.131Z" fill="url(#paint22_linear_1313_14493)"/>
<path style="mix-blend-mode:multiply" d="M150.455 143.131L104.371 184.176C103.358 185.079 101.828 185.079 100.81 184.176L54.7207 143.131C54.7207 140.169 57.1192 137.765 60.0814 137.765H145.088C148.051 137.765 150.449 140.169 150.449 143.131H150.455Z" fill="url(#paint23_linear_1313_14493)"/>
<path d="M58.8623 201.444L88.4614 175.434" stroke="black" stroke-width="2" stroke-linecap="round" stroke-linejoin="round"/>
<path d="M146.32 201.444L116.721 175.434" stroke="black" stroke-width="2" stroke-linecap="round" stroke-linejoin="round"/>
<path d="M98.1877 214.292C76.9576 219.411 55.9517 255.354 76.0603 277.436C96.1688 299.517 132.371 277.591 115.524 267.485C96.094 255.837 34.1982 381.74 161.591 361.488" stroke="#A9A9A9" stroke-miterlimit="10" stroke-linecap="round"/>
<path d="M245.912 63.3568L161.912 0L236.29 46.2565L245.912 63.3568Z" fill="black"/>
<path d="M264.801 10.5374L212.109 76.5459L161.912 0L264.801 10.5374Z" fill="url(#paint24_linear_1313_14493)"/>
<path d="M161.912 0L245.912 34.2006V63.3568L234.087 49.0174L161.912 0Z" fill="url(#paint25_linear_1313_14493)"/>
<path d="M249.174 67.5437C256.565 94.3302 283.8 117.781 317.558 98.7534C351.321 79.7262 315.447 60.4459 310.679 82.8092C301.125 127.622 356.354 156.479 408.639 133.621C460.929 110.758 473.083 36.035 453.273 7.22388" stroke="#A9A9A9" stroke-miterlimit="10" stroke-linecap="round"/>
<path d="M639.329 214.076L678.879 173.134L643.033 204.131L639.329 214.076Z" fill="black"/>
<path d="M624.782 187.445L658.505 218.275L678.879 173.134L624.782 187.445Z" fill="url(#paint26_linear_1313_14493)"/>
<path d="M678.879 173.134L636.873 198.5L639.329 214.076L644.443 205.419L678.879 173.134Z" fill="url(#paint27_linear_1313_14493)"/>
<path d="M634.687 218.302C634.687 218.302 629.384 226.343 618.145 224.313C606.33 222.173 612.778 207.19 621.791 216.617C633.341 228.702 613.681 253.009 592.227 244.905" stroke="#A9A9A9" stroke-miterlimit="10" stroke-linecap="round"/>
<path d="M1.78027 501.983H662.239" stroke="#CECECE" stroke-width="2" stroke-miterlimit="10" stroke-linecap="round"/>
<defs>
<linearGradient id="paint0_linear_1313_14493" x1="109.754" y1="347.879" x2="304.8" y2="347.879" gradientUnits="userSpaceOnUse">
<stop stop-color="#4E4E4E"/>
<stop offset="1" stop-color="#727272"/>
</linearGradient>
<linearGradient id="paint1_linear_1313_14493" x1="436.736" y1="184.853" x2="514.294" y2="184.853" gradientUnits="userSpaceOnUse">
<stop stop-color="#6F95ED"/>
<stop offset="1" stop-color="#5873EC"/>
</linearGradient>
<linearGradient id="paint2_linear_1313_14493" x1="636.607" y1="305.849" x2="655.842" y2="305.849" gradientUnits="userSpaceOnUse">
<stop stop-color="#6F95ED"/>
<stop offset="1" stop-color="#5873EC"/>
</linearGradient>
<linearGradient id="paint3_linear_1313_14493" x1="170.256" y1="112.934" x2="198.624" y2="112.934" gradientUnits="userSpaceOnUse">
<stop stop-color="#6F95ED"/>
<stop offset="1" stop-color="#5873EC"/>
</linearGradient>
<linearGradient id="paint4_linear_1313_14493" x1="249.174" y1="109.521" x2="322.286" y2="109.521" gradientUnits="userSpaceOnUse">
<stop stop-color="#6F95ED"/>
<stop offset="1" stop-color="#5873EC"/>
</linearGradient>
<linearGradient id="paint5_linear_1313_14493" x1="407.896" y1="437.279" x2="606.854" y2="437.279" gradientUnits="userSpaceOnUse">
<stop stop-color="#6F95ED"/>
<stop offset="1" stop-color="#5873EC"/>
</linearGradient>
<linearGradient id="paint6_linear_1313_14493" x1="408.645" y1="159.622" x2="408.645" y2="422.305" gradientUnits="userSpaceOnUse">
<stop stop-color="#C9C9C9"/>
<stop offset="1" stop-color="#CBCBCB"/>
</linearGradient>
<linearGradient id="paint7_linear_1313_14493" x1="328.078" y1="496.591" x2="480.917" y2="496.591" gradientUnits="userSpaceOnUse">
<stop stop-color="#DEDEDE"/>
<stop offset="1" stop-color="#CFCFCF"/>
</linearGradient>
<linearGradient id="paint8_linear_1313_14493" x1="120.131" y1="269.774" x2="203.688" y2="269.774" gradientUnits="userSpaceOnUse">
<stop stop-color="#FFD2B6"/>
<stop offset="1" stop-color="#FFB793"/>
</linearGradient>
<linearGradient id="paint9_linear_1313_14493" x1="304.927" y1="274.508" x2="314.831" y2="423.056" gradientUnits="userSpaceOnUse">
<stop stop-color="#D270EF"/>
<stop offset="0.99" stop-color="#AB52C5"/>
</linearGradient>
<linearGradient id="paint10_linear_1313_14493" x1="369.014" y1="164.251" x2="369.014" y2="294.669" gradientUnits="userSpaceOnUse">
<stop stop-color="#FFD2B6"/>
<stop offset="1" stop-color="#FFB793"/>
</linearGradient>
<linearGradient id="paint11_linear_1313_14493" x1="432.216" y1="266.026" x2="442.121" y2="414.573" gradientUnits="userSpaceOnUse">
<stop stop-color="#D270EF"/>
<stop offset="0.99" stop-color="#AB52C5"/>
</linearGradient>
<linearGradient id="paint12_linear_1313_14493" x1="338.943" y1="372.809" x2="347.841" y2="454.526" gradientUnits="userSpaceOnUse">
<stop stop-color="#FFD2B6"/>
<stop offset="1" stop-color="#FFB793"/>
</linearGradient>
<linearGradient id="paint13_linear_1313_14493" x1="395.87" y1="173.902" x2="424.152" y2="173.902" gradientUnits="userSpaceOnUse">
<stop stop-color="#D270EF"/>
<stop offset="0.99" stop-color="#AB52C5"/>
</linearGradient>
<linearGradient id="paint14_linear_1313_14493" x1="379.994" y1="248.447" x2="359.822" y2="263.695" gradientUnits="userSpaceOnUse">
<stop stop-color="#FFD2B6"/>
<stop offset="1" stop-color="#FFB793"/>
</linearGradient>
<linearGradient id="paint15_linear_1313_14493" x1="106.988" y1="437.781" x2="106.988" y2="387.936" gradientUnits="userSpaceOnUse">
<stop stop-color="#A3B523"/>
<stop offset="1" stop-color="#BBD631"/>
</linearGradient>
<linearGradient id="paint16_linear_1313_14493" x1="199.19" y1="429.006" x2="199.19" y2="501.52" gradientUnits="userSpaceOnUse">
<stop stop-color="#46B9FA"/>
<stop offset="1" stop-color="#2184B9"/>
</linearGradient>
<linearGradient id="paint17_linear_1313_14493" x1="270.68" y1="468.38" x2="270.68" y2="517.777" gradientUnits="userSpaceOnUse">
<stop stop-color="#6F95ED"/>
<stop offset="1" stop-color="#5873EC"/>
</linearGradient>
<linearGradient id="paint18_linear_1313_14493" x1="280.217" y1="502" x2="280.217" y2="477.324" gradientUnits="userSpaceOnUse">
<stop stop-color="#FF9C00"/>
<stop offset="1" stop-color="#FFCA00"/>
</linearGradient>
<linearGradient id="paint19_linear_1313_14493" x1="259.683" y1="443.705" x2="259.683" y2="493.102" gradientUnits="userSpaceOnUse">
<stop stop-color="#6F95ED"/>
<stop offset="1" stop-color="#5873EC"/>
</linearGradient>
<linearGradient id="paint20_linear_1313_14493" x1="263.744" y1="477.324" x2="263.744" y2="452.648" gradientUnits="userSpaceOnUse">
<stop stop-color="#BE1E2B"/>
<stop offset="1" stop-color="#D3535C"/>
</linearGradient>
<linearGradient id="paint21_linear_1313_14493" x1="54.7266" y1="171.569" x2="150.455" y2="171.569" gradientUnits="userSpaceOnUse">
<stop stop-color="#EE9AC5"/>
<stop offset="0.99" stop-color="#E181BB"/>
</linearGradient>
<linearGradient id="paint22_linear_1313_14493" x1="102.588" y1="202.669" x2="102.588" y2="153.047" gradientUnits="userSpaceOnUse">
<stop stop-color="#FF9C00"/>
<stop offset="1" stop-color="#FFCA00"/>
</linearGradient>
<linearGradient id="paint23_linear_1313_14493" x1="102.588" y1="190.532" x2="102.588" y2="137.759" gradientUnits="userSpaceOnUse">
<stop stop-color="#FF9C00"/>
<stop offset="1" stop-color="#FFCA00"/>
</linearGradient>
<linearGradient id="paint24_linear_1313_14493" x1="264.807" y1="38.2729" x2="161.912" y2="38.2729" gradientUnits="userSpaceOnUse">
<stop stop-color="#2E91CA"/>
<stop offset="1" stop-color="#177BAD"/>
</linearGradient>
<linearGradient id="paint25_linear_1313_14493" x1="245.918" y1="31.6755" x2="161.912" y2="31.6755" gradientUnits="userSpaceOnUse">
<stop stop-color="#2574A2"/>
<stop offset="1" stop-color="#064366"/>
</linearGradient>
<linearGradient id="paint26_linear_1313_14493" x1="627.093" y1="202.246" x2="682.079" y2="193.566" gradientUnits="userSpaceOnUse">
<stop stop-color="#1E82B6"/>
<stop offset="1" stop-color="#2386BC"/>
</linearGradient>
<linearGradient id="paint27_linear_1313_14493" x1="636.632" y1="197.124" x2="681.522" y2="190.038" gradientUnits="userSpaceOnUse">
<stop stop-color="#0E5076"/>
<stop offset="1" stop-color="#226F9B"/>
</linearGradient>
</defs>
</svg>
